# xmcd CD database file
#
# Track frame offsets:
#	150
#	12440
#	25985
#	38470
#	47085
#	61485
#	72185
#	92287
#	105852
#	118137
#
# Disc length: 1734 seconds
#
# Revision: 0
# Processed by: cddbd v1.4PL0 Copyright (c) Steve Scherf et al.
# Submitted via: CDex 1.40Release
#
DISCID=7406c40a
DTITLE=Dizzy Gillespie - MAN licor 43
DYEAR=1996
DGENRE=Blues
TTITLE0=blue and sentimental
TTITLE1=night and day
TTITLE2=cool breeze
TTITLE3=jealousy
TTITLE4=my old flame
TTITLE5=pennies from heaven
TTITLE6=blue moon
TTITLE7=the man i love
TTITLE8=all the things you are
TTITLE9=love me or leave me
EXTD=YEAR: 1996 ID3G: 0
EXTT0=
EXTT1=
EXTT2=
EXTT3=
EXTT4=
EXTT5=
EXTT6=
EXTT7=
EXTT8=
EXTT9=
PLAYORDER=
